<svg width="85" height="29" viewBox="0 0 85 29" fill="none" xmlns="http://www.w3.org/2000/svg">
<path d="M23.6642 15.324C23.6642 16.596 23.4522 17.764 23.0282 18.828C22.6042 19.892 22.0082 20.808 21.2402 21.576C20.4722 22.344 19.5482 22.94 18.4682 23.364C17.3882 23.788 16.1882 24 14.8682 24H8.25622V6.648H14.8682C16.1882 6.648 17.3882 6.864 18.4682 7.296C19.5482 7.72 20.4722 8.316 21.2402 9.084C22.0082 9.844 22.6042 10.756 23.0282 11.82C23.4522 12.884 23.6642 14.052 23.6642 15.324ZM20.3522 15.324C20.3522 14.372 20.2242 13.52 19.9682 12.768C19.7202 12.008 19.3562 11.368 18.8762 10.848C18.4042 10.32 17.8282 9.916 17.1482 9.636C16.4762 9.356 15.7162 9.216 14.8682 9.216H11.4962V21.432H14.8682C15.7162 21.432 16.4762 21.292 17.1482 21.012C17.8282 20.732 18.4042 20.332 18.8762 19.812C19.3562 19.284 19.7202 18.644 19.9682 17.892C20.2242 17.132 20.3522 16.276 20.3522 15.324ZM32.2453 18.744C31.3893 18.784 30.6693 18.86 30.0853 18.972C29.5013 19.076 29.0333 19.212 28.6813 19.38C28.3293 19.548 28.0773 19.744 27.9253 19.968C27.7733 20.192 27.6973 20.436 27.6973 20.7C27.6973 21.22 27.8493 21.592 28.1533 21.816C28.4653 22.04 28.8693 22.152 29.3653 22.152C29.9733 22.152 30.4973 22.044 30.9373 21.828C31.3853 21.604 31.8213 21.268 32.2453 20.82V18.744ZM25.4533 13.404C26.8693 12.108 28.5733 11.46 30.5653 11.46C31.2853 11.46 31.9293 11.58 32.4973 11.82C33.0653 12.052 33.5453 12.38 33.9373 12.804C34.3293 13.22 34.6253 13.72 34.8253 14.304C35.0333 14.888 35.1373 15.528 35.1373 16.224V24H33.7933C33.5133 24 33.2973 23.96 33.1453 23.88C32.9933 23.792 32.8733 23.62 32.7853 23.364L32.5213 22.476C32.2093 22.756 31.9053 23.004 31.6093 23.22C31.3133 23.428 31.0053 23.604 30.6853 23.748C30.3653 23.892 30.0213 24 29.6533 24.072C29.2933 24.152 28.8933 24.192 28.4533 24.192C27.9333 24.192 27.4533 24.124 27.0133 23.988C26.5733 23.844 26.1933 23.632 25.8733 23.352C25.5533 23.072 25.3053 22.724 25.1293 22.308C24.9533 21.892 24.8653 21.408 24.8653 20.856C24.8653 20.544 24.9173 20.236 25.0213 19.932C25.1253 19.62 25.2933 19.324 25.5253 19.044C25.7653 18.764 26.0733 18.5 26.4493 18.252C26.8253 18.004 27.2853 17.788 27.8293 17.604C28.3813 17.42 29.0213 17.272 29.7493 17.16C30.4773 17.04 31.3093 16.968 32.2453 16.944V16.224C32.2453 15.4 32.0693 14.792 31.7173 14.4C31.3653 14 30.8573 13.8 30.1933 13.8C29.7133 13.8 29.3133 13.856 28.9933 13.968C28.6813 14.08 28.4053 14.208 28.1653 14.352C27.9253 14.488 27.7053 14.612 27.5053 14.724C27.3133 14.836 27.0973 14.892 26.8573 14.892C26.6493 14.892 26.4733 14.84 26.3293 14.736C26.1853 14.624 26.0693 14.496 25.9813 14.352L25.4533 13.404ZM55.3917 11.688L51.4797 24H49.1037C48.8317 24 48.6437 23.824 48.5397 23.472L46.3317 16.356C46.2597 16.116 46.1917 15.88 46.1277 15.648C46.0717 15.408 46.0237 15.168 45.9837 14.928C45.9357 15.168 45.8797 15.412 45.8157 15.66C45.7597 15.9 45.6957 16.14 45.6237 16.38L43.3797 23.472C43.2837 23.824 43.0717 24 42.7437 24H40.4637L36.5637 11.688H38.9277C39.1437 11.688 39.3277 11.74 39.4797 11.844C39.6317 11.948 39.7317 12.08 39.7797 12.24L41.5437 18.816C41.6317 19.176 41.7077 19.528 41.7717 19.872C41.8437 20.216 41.9037 20.56 41.9517 20.904C42.0397 20.56 42.1317 20.216 42.2277 19.872C42.3317 19.528 42.4397 19.176 42.5517 18.816L44.5917 12.216C44.6397 12.056 44.7317 11.924 44.8677 11.82C45.0117 11.716 45.1837 11.664 45.3837 11.664H46.6917C46.8997 11.664 47.0757 11.716 47.2197 11.82C47.3717 11.924 47.4717 12.056 47.5197 12.216L49.4997 18.816C49.6037 19.176 49.6997 19.532 49.7877 19.884C49.8837 20.228 49.9757 20.572 50.0637 20.916C50.1677 20.236 50.3157 19.536 50.5077 18.816L52.3197 12.24C52.3757 12.08 52.4757 11.948 52.6197 11.844C52.7637 11.74 52.9357 11.688 53.1357 11.688H55.3917ZM61.4132 17.544C61.7812 17.544 62.1012 17.496 62.3732 17.4C62.6452 17.296 62.8692 17.156 63.0452 16.98C63.2292 16.804 63.3652 16.592 63.4532 16.344C63.5492 16.096 63.5972 15.824 63.5972 15.528C63.5972 14.92 63.4132 14.44 63.0452 14.088C62.6852 13.728 62.1412 13.548 61.4132 13.548C60.6852 13.548 60.1372 13.728 59.7692 14.088C59.4092 14.44 59.2292 14.92 59.2292 15.528C59.2292 15.816 59.2732 16.084 59.3612 16.332C59.4572 16.58 59.5932 16.796 59.7692 16.98C59.9532 17.156 60.1812 17.296 60.4532 17.4C60.7332 17.496 61.0532 17.544 61.4132 17.544ZM64.7612 24.552C64.7612 24.312 64.6892 24.116 64.5452 23.964C64.4012 23.812 64.2052 23.696 63.9572 23.616C63.7092 23.528 63.4172 23.464 63.0812 23.424C62.7532 23.384 62.4012 23.356 62.0252 23.34C61.6572 23.316 61.2732 23.296 60.8732 23.28C60.4812 23.264 60.0972 23.232 59.7212 23.184C59.3932 23.368 59.1252 23.584 58.9172 23.832C58.7172 24.08 58.6172 24.368 58.6172 24.696C58.6172 24.912 58.6692 25.112 58.7732 25.296C58.8852 25.488 59.0572 25.652 59.2892 25.788C59.5292 25.924 59.8372 26.028 60.2132 26.1C60.5892 26.18 61.0492 26.22 61.5932 26.22C62.1452 26.22 62.6212 26.176 63.0212 26.088C63.4212 26.008 63.7492 25.892 64.0052 25.74C64.2692 25.596 64.4612 25.42 64.5812 25.212C64.7012 25.012 64.7612 24.792 64.7612 24.552ZM67.7132 12.108V13.212C67.7132 13.564 67.5012 13.78 67.0772 13.86L65.9732 14.064C66.1412 14.488 66.2252 14.952 66.2252 15.456C66.2252 16.064 66.1012 16.616 65.8532 17.112C65.6132 17.6 65.2772 18.016 64.8452 18.36C64.4132 18.704 63.9012 18.972 63.3092 19.164C62.7252 19.348 62.0932 19.44 61.4132 19.44C61.1732 19.44 60.9412 19.428 60.7172 19.404C60.4932 19.38 60.2732 19.348 60.0572 19.308C59.6732 19.54 59.4812 19.8 59.4812 20.088C59.4812 20.336 59.5932 20.52 59.8172 20.64C60.0492 20.752 60.3532 20.832 60.7292 20.88C61.1052 20.928 61.5332 20.96 62.0132 20.976C62.4932 20.984 62.9852 21.008 63.4892 21.048C63.9932 21.088 64.4852 21.16 64.9652 21.264C65.4452 21.36 65.8732 21.516 66.2492 21.732C66.6252 21.948 66.9252 22.244 67.1492 22.62C67.3812 22.988 67.4972 23.464 67.4972 24.048C67.4972 24.592 67.3612 25.12 67.0892 25.632C66.8252 26.144 66.4372 26.6 65.9252 27C65.4212 27.4 64.7972 27.72 64.0532 27.96C63.3172 28.208 62.4772 28.332 61.5332 28.332C60.6052 28.332 59.7972 28.24 59.1092 28.056C58.4212 27.88 57.8492 27.64 57.3932 27.336C56.9372 27.04 56.5972 26.696 56.3732 26.304C56.1492 25.912 56.0372 25.504 56.0372 25.08C56.0372 24.504 56.2092 24.024 56.5532 23.64C56.9052 23.248 57.3852 22.936 57.9932 22.704C57.6652 22.536 57.4052 22.312 57.2132 22.032C57.0212 21.752 56.9252 21.384 56.9252 20.928C56.9252 20.744 56.9572 20.556 57.0212 20.364C57.0932 20.164 57.1932 19.968 57.3212 19.776C57.4572 19.584 57.6252 19.404 57.8252 19.236C58.0252 19.06 58.2612 18.904 58.5332 18.768C57.9092 18.432 57.4172 17.984 57.0572 17.424C56.7052 16.864 56.5292 16.208 56.5292 15.456C56.5292 14.848 56.6492 14.3 56.8892 13.812C57.1372 13.316 57.4772 12.896 57.9092 12.552C58.3492 12.2 58.8652 11.932 59.4572 11.748C60.0572 11.564 60.7092 11.472 61.4132 11.472C61.9412 11.472 62.4372 11.528 62.9012 11.64C63.3652 11.744 63.7892 11.9 64.1732 12.108H67.7132ZM77.1049 14.088C77.0249 14.216 76.9409 14.308 76.8529 14.364C76.7649 14.412 76.6529 14.436 76.5169 14.436C76.3729 14.436 76.2169 14.396 76.0489 14.316C75.8889 14.236 75.7009 14.148 75.4849 14.052C75.2689 13.948 75.0209 13.856 74.7409 13.776C74.4689 13.696 74.1449 13.656 73.7689 13.656C73.1849 13.656 72.7249 13.78 72.3889 14.028C72.0609 14.276 71.8969 14.6 71.8969 15C71.8969 15.264 71.9809 15.488 72.1489 15.672C72.3249 15.848 72.5529 16.004 72.8329 16.14C73.1209 16.276 73.4449 16.4 73.8049 16.512C74.1649 16.616 74.5289 16.732 74.8969 16.86C75.2729 16.988 75.6409 17.136 76.0009 17.304C76.3609 17.464 76.6809 17.672 76.9609 17.928C77.2489 18.176 77.4769 18.476 77.6449 18.828C77.8209 19.18 77.9089 19.604 77.9089 20.1C77.9089 20.692 77.8009 21.24 77.5849 21.744C77.3769 22.24 77.0649 22.672 76.6489 23.04C76.2329 23.4 75.7169 23.684 75.1009 23.892C74.4929 24.092 73.7889 24.192 72.9889 24.192C72.5649 24.192 72.1489 24.152 71.7409 24.072C71.3409 24 70.9529 23.896 70.5769 23.76C70.2089 23.624 69.8649 23.464 69.5449 23.28C69.2329 23.096 68.9569 22.896 68.7169 22.68L69.4009 21.552C69.4889 21.416 69.5929 21.312 69.7129 21.24C69.8329 21.168 69.9849 21.132 70.1689 21.132C70.3529 21.132 70.5249 21.184 70.6849 21.288C70.8529 21.392 71.0449 21.504 71.2609 21.624C71.4769 21.744 71.7289 21.856 72.0169 21.96C72.3129 22.064 72.6849 22.116 73.1329 22.116C73.4849 22.116 73.7849 22.076 74.0329 21.996C74.2889 21.908 74.4969 21.796 74.6569 21.66C74.8249 21.524 74.9449 21.368 75.0169 21.192C75.0969 21.008 75.1369 20.82 75.1369 20.628C75.1369 20.34 75.0489 20.104 74.8729 19.92C74.7049 19.736 74.4769 19.576 74.1889 19.44C73.9089 19.304 73.5849 19.184 73.2169 19.08C72.8569 18.968 72.4849 18.848 72.1009 18.72C71.7249 18.592 71.3529 18.444 70.9849 18.276C70.6249 18.1 70.3009 17.88 70.0129 17.616C69.7329 17.352 69.5049 17.028 69.3289 16.644C69.1609 16.26 69.0769 15.796 69.0769 15.252C69.0769 14.748 69.1769 14.268 69.3769 13.812C69.5769 13.356 69.8689 12.96 70.2529 12.624C70.6449 12.28 71.1289 12.008 71.7049 11.808C72.2889 11.6 72.9609 11.496 73.7209 11.496C74.5689 11.496 75.3409 11.636 76.0369 11.916C76.7329 12.196 77.3129 12.564 77.7769 13.02L77.1049 14.088Z" fill="black"/>
</svg>
